<!DOCTYPE svg PUBLIC "-//W3C//DTD SVG 1.1//EN" "http://www.w3.org/Graphics/SVG/1.1/DTD/svg11.dtd">
<!-- Uploaded to: SVG Repo, www.svgrepo.com, Transformed by: SVG Repo Mixer Tools -->
<svg version="1.1" id="Layer_1" xmlns="http://www.w3.org/2000/svg" xmlns:xlink="http://www.w3.org/1999/xlink" viewBox="0 0 512 512" xml:space="preserve" width="64px" height="64px" fill="#000000">
<g id="SVGRepo_bgCarrier" stroke-width="0"/>
<g id="SVGRepo_tracerCarrier" stroke-linecap="round" stroke-linejoin="round"/>
<g id="SVGRepo_iconCarrier"> <circle style="fill:#EDEDEE;" cx="256" cy="256" r="256"/> <g> <path style="fill:#DDDCDF;" d="M512,256c0,141.384-114.616,256-256,256V0C397.384,0,512,114.616,512,256z"/> <circle style="fill:#DDDCDF;" cx="256" cy="256" r="144.607"/> </g> <path style="fill:#CCCCCF;" d="M400.61,256c0,79.866-64.745,144.61-144.61,144.61V111.39C335.866,111.39,400.61,176.134,400.61,256z "/> <rect x="255.981" y="142.262" transform="matrix(-0.7071 0.7071 -0.7071 -0.7071 634.707 215.7214)" style="fill:#E05323;" width="33.391" height="194.102"/> <rect x="290.296" y="225.105" transform="matrix(-0.7071 0.7071 -0.7071 -0.7071 717.5506 250.0367)" style="fill:#A5401D;" width="33.391" height="97.045"/> <rect x="147.755" y="222.737" transform="matrix(0.7071 0.7071 -0.7071 0.7071 221.386 -55.6078)" style="fill:#E05323;" width="60.126" height="33.391"/> <rect x="245.289" y="318.637" transform="matrix(0.7071 0.7071 -0.7071 0.7071 317.2872 -95.3335)" style="fill:#A5401D;" width="56.865" height="33.391"/> <polygon style="fill:#E05323;" points="278.766,167.932 256.072,131.201 342.128,102.686 331.627,70.99 205.451,112.797 250.359,185.483 "/> <polygon style="fill:#A5401D;" points="409.313,169.872 380.799,255.928 344.068,233.234 326.518,261.64 399.202,306.549 441.01,180.374 "/> <rect x="326.6" y="114.056" transform="matrix(-0.7071 -0.7071 0.7071 -0.7071 490.7069 472.9075)" style="fill:#E05323;" width="33.391" height="41.538"/> <rect x="360.47" y="147.935" transform="matrix(-0.7071 -0.7071 0.7071 -0.7071 524.5703 554.6924)" style="fill:#A5401D;" width="33.391" height="41.538"/> <path style="fill:#E3744E;" d="M361.67,150.331c-26.01-26.011-68.332-26.01-94.342,0l-42.952,42.951l-73.067,108.437L70.99,334.911 l106.098,106.098l33.193-80.318l107.1-72.166l1.337-0.9l42.951-42.953c12.6-12.6,19.539-29.352,19.539-47.171 S374.27,162.931,361.67,150.331z"/> <path style="fill:#E05323;" d="M361.67,150.331c-40.378,40.378-237.631,237.63-237.631,237.63l53.049,53.049l33.193-80.318 l107.1-72.166l1.337-0.9l42.951-42.953c12.6-12.6,19.539-29.352,19.539-47.171S374.27,162.931,361.67,150.331z"/> </g>
</svg>