<!DOCTYPE svg PUBLIC "-//W3C//DTD SVG 1.1//EN" "http://www.w3.org/Graphics/SVG/1.1/DTD/svg11.dtd">
<!-- Uploaded to: SVG Repo, www.svgrepo.com, Transformed by: SVG Repo Mixer Tools -->
<svg version="1.1" id="Layer_1" xmlns="http://www.w3.org/2000/svg" xmlns:xlink="http://www.w3.org/1999/xlink" viewBox="0 0 512.001 512.001" xml:space="preserve" width="64px" height="64px" fill="#000000">
<g id="SVGRepo_bgCarrier" stroke-width="0"/>
<g id="SVGRepo_tracerCarrier" stroke-linecap="round" stroke-linejoin="round"/>
<g id="SVGRepo_iconCarrier"> <path style="fill:#EDEDEE;" d="M417.522,90.162c-26.722,0-50.835,11.112-68.02,28.946c-6.555-45.778-45.91-80.973-93.501-80.973 s-86.946,35.194-93.501,80.973c-17.185-17.833-41.298-28.946-68.02-28.946C42.299,90.162,0,132.461,0,184.64 s42.299,94.478,94.478,94.478v194.747h323.044V279.117c52.178,0,94.478-42.299,94.478-94.478S469.701,90.162,417.522,90.162z"/> <path style="fill:#DDDCDF;" d="M417.522,90.162c-26.722,0-50.835,11.112-68.02,28.946c-6.555-45.778-45.91-80.973-93.501-80.973 c0,39.981,0,435.731,0,435.731h161.522V279.117c52.178,0,94.478-42.299,94.478-94.478S469.701,90.162,417.522,90.162z"/> <rect x="94.475" y="381.94" style="fill:#d17557;" width="323.05" height="91.926"/> <rect x="256" y="381.94" style="fill:#cc6644;" width="161.525" height="91.926"/> </g>
</svg>